<?xml version="1.0" standalone="no"?>
<!DOCTYPE svg PUBLIC "-//W3C//DTD SVG 20010904//EN"
 "http://www.w3.org/TR/2001/REC-SVG-20010904/DTD/svg10.dtd">
<svg version="1.0" xmlns="http://www.w3.org/2000/svg"
 width="458.000000pt" height="179.000000pt" viewBox="0 0 458.000000 179.000000"
 preserveAspectRatio="xMidYMid meet">
<metadata>
Created by potrace 1.16, written by Peter Selinger 2001-2019
</metadata>
<g transform="translate(0.000000,179.000000) scale(0.100000,-0.100000)"
fill="#000000" stroke="none">
<path d="M3188 1523 l-378 -3 0 -624 0 -623 530 -6 c439 -5 540 -3 585 8 166
44 269 152 282 296 14 145 -29 245 -132 314 l-61 41 47 45 c57 55 79 118 79
224 0 100 -22 159 -85 221 -82 82 -203 116 -400 111 -49 -1 -260 -3 -467 -4z
m604 -249 c35 -10 68 -63 68 -109 0 -61 -17 -93 -62 -116 -33 -17 -60 -19
-267 -19 l-230 0 -3 -119 -3 -120 265 -3 c231 -3 269 -5 297 -21 68 -37 91
-117 53 -186 -43 -75 -47 -76 -455 -76 l-360 0 0 385 0 385 310 5 c297 5 349
4 387 -6z"/>
<path d="M540 896 l0 -626 145 0 145 0 2 193 3 192 200 6 c219 7 284 17 361
54 58 28 132 102 162 161 52 101 56 296 8 399 -35 77 -76 127 -139 168 -107
70 -112 71 -519 75 l-368 3 0 -625z m696 365 c75 -34 116 -123 95 -207 -16
-64 -46 -103 -95 -125 -35 -16 -67 -19 -223 -19 l-183 0 0 185 0 185 183 0
c156 0 188 -3 223 -19z"/>
<path d="M1680 895 l0 -625 140 0 140 0 0 255 0 255 219 0 219 0 -2 -252 -1
-253 143 -3 142 -3 0 626 0 626 -142 -3 -143 -3 2 -242 1 -243 -131 -1 c-73 0
-163 -4 -202 -8 -117 -13 -107 -36 -104 248 l3 246 -142 3 -142 3 0 -626z"/>
</g>
</svg>
